# xmcd CD database file
# Copyright (C) 1993-1998 Ti Kan
#
# Track frame offsets:
#	150
#	12870
#	20877
#	26620
#	40062
#	52612
#	69075
#	80850
#	95987
#	111267
#	125922
#	134650
#	150547
#
# Disc length: 2124 seconds
#
# Revision: 0
# Processed by: cddbd v1.4b41PL1 Copyright (c) Steve Scherf et al.
# Submitted via: CDmax 1.5
#
DISCID=b0084a0d
DTITLE=John Allair - Larkspur
DYEAR=1900
DGENRE=
TTITLE0=Sugar Mama
TTITLE1=Evil Woman
TTITLE2=Ravel
TTITLE3=Since I Fell For You
TTITLE4=Rockin The Joint
TTITLE5=My Back Went Out
TTITLE6=Mess Around
TTITLE7=Baby, What You Want Me To Do?
TTITLE8=Go To The High Place In Your Mind
TTITLE9=Long Legs
TTITLE10=Ives
TTITLE11=Stack-O-Lee
TTITLE12=Mendelsson
EXTD=
EXTT0=
EXTT1=
EXTT2=
EXTT3=
EXTT4=
EXTT5=
EXTT6=
EXTT7=
EXTT8=
EXTT9=
EXTT10=
EXTT11=
EXTT12=
PLAYORDER=
